<mxfile host="Electron" modified="2023-05-27T13:39:44.869Z" agent="Mozilla/5.0 (Macintosh; Intel Mac OS X 10_15_7) AppleWebKit/537.36 (KHTML, like Gecko) draw.io/21.2.1 Chrome/112.0.5615.87 Electron/24.1.2 Safari/537.36" etag="lYLkFbqYQi1QHU6OMChu" version="21.2.1" type="device">
  <diagram name="Page-1" id="H1nZVYqxkzLZFgEqRADx">
    <mxGraphModel dx="-38" dy="1646" grid="1" gridSize="10" guides="1" tooltips="1" connect="1" arrows="1" fold="1" page="1" pageScale="1" pageWidth="850" pageHeight="1100" math="0" shadow="0">
      <root>
        <mxCell id="0" />
        <mxCell id="1" parent="0" />
        <mxCell id="AsBp8XiL8Dx4Y6rQVwFH-2980" value="R, W: 83, H: 77, ORDER: 14, GC: {34, 25, 24, 5, 6, 13, 9, 12, 4, 8, 1, 7, 43, 40} " style="text;html=1;strokeColor=none;fillColor=none;align=center;verticalAlign=middle;whiteSpace=wrap;rounded=0;" parent="1" vertex="1">
          <mxGeometry x="1490" width="830" height="30" as="geometry" />
        </mxCell>
        <mxCell id="I9x_zmLDzlB-0vNgoR04-1" value="" style="group;flipV=1;" vertex="1" connectable="0" parent="1">
          <mxGeometry x="1490" y="50" width="830" height="770" as="geometry" />
        </mxCell>
        <mxCell id="761dnnyQ54j-Cl0NHfQN-2981" value="34" style="rounded=0;whiteSpace=wrap;html=1;" parent="I9x_zmLDzlB-0vNgoR04-1" vertex="1">
          <mxGeometry y="430" width="340" height="340" as="geometry" />
        </mxCell>
        <mxCell id="761dnnyQ54j-Cl0NHfQN-2982" value="25" style="rounded=0;whiteSpace=wrap;html=1;" parent="I9x_zmLDzlB-0vNgoR04-1" vertex="1">
          <mxGeometry x="340" y="520" width="250" height="250" as="geometry" />
        </mxCell>
        <mxCell id="761dnnyQ54j-Cl0NHfQN-2983" value="24" style="rounded=0;whiteSpace=wrap;html=1;" parent="I9x_zmLDzlB-0vNgoR04-1" vertex="1">
          <mxGeometry x="590" y="530" width="240" height="240" as="geometry" />
        </mxCell>
        <mxCell id="761dnnyQ54j-Cl0NHfQN-2984" value="5" style="rounded=0;whiteSpace=wrap;html=1;" parent="I9x_zmLDzlB-0vNgoR04-1" vertex="1">
          <mxGeometry x="590" y="480" width="50" height="50" as="geometry" />
        </mxCell>
        <mxCell id="761dnnyQ54j-Cl0NHfQN-2985" value="6" style="rounded=0;whiteSpace=wrap;html=1;" parent="I9x_zmLDzlB-0vNgoR04-1" vertex="1">
          <mxGeometry x="640" y="470" width="60" height="60" as="geometry" />
        </mxCell>
        <mxCell id="761dnnyQ54j-Cl0NHfQN-2986" value="13" style="rounded=0;whiteSpace=wrap;html=1;" parent="I9x_zmLDzlB-0vNgoR04-1" vertex="1">
          <mxGeometry x="700" y="400" width="130" height="130" as="geometry" />
        </mxCell>
        <mxCell id="761dnnyQ54j-Cl0NHfQN-2987" value="9" style="rounded=0;whiteSpace=wrap;html=1;" parent="I9x_zmLDzlB-0vNgoR04-1" vertex="1">
          <mxGeometry x="340" y="430" width="90" height="90" as="geometry" />
        </mxCell>
        <mxCell id="761dnnyQ54j-Cl0NHfQN-2988" value="12" style="rounded=0;whiteSpace=wrap;html=1;" parent="I9x_zmLDzlB-0vNgoR04-1" vertex="1">
          <mxGeometry x="430" y="400" width="120" height="120" as="geometry" />
        </mxCell>
        <mxCell id="761dnnyQ54j-Cl0NHfQN-2989" value="4" style="rounded=0;whiteSpace=wrap;html=1;" parent="I9x_zmLDzlB-0vNgoR04-1" vertex="1">
          <mxGeometry x="550" y="480" width="40" height="40" as="geometry" />
        </mxCell>
        <mxCell id="761dnnyQ54j-Cl0NHfQN-2990" value="8" style="rounded=0;whiteSpace=wrap;html=1;" parent="I9x_zmLDzlB-0vNgoR04-1" vertex="1">
          <mxGeometry x="550" y="400" width="80" height="80" as="geometry" />
        </mxCell>
        <mxCell id="761dnnyQ54j-Cl0NHfQN-2991" value="1" style="rounded=0;whiteSpace=wrap;html=1;" parent="I9x_zmLDzlB-0vNgoR04-1" vertex="1">
          <mxGeometry x="630" y="470" width="10" height="10" as="geometry" />
        </mxCell>
        <mxCell id="761dnnyQ54j-Cl0NHfQN-2992" value="7" style="rounded=0;whiteSpace=wrap;html=1;" parent="I9x_zmLDzlB-0vNgoR04-1" vertex="1">
          <mxGeometry x="630" y="400" width="70" height="70" as="geometry" />
        </mxCell>
        <mxCell id="761dnnyQ54j-Cl0NHfQN-2993" value="43" style="rounded=0;whiteSpace=wrap;html=1;" parent="I9x_zmLDzlB-0vNgoR04-1" vertex="1">
          <mxGeometry width="430" height="430" as="geometry" />
        </mxCell>
        <mxCell id="761dnnyQ54j-Cl0NHfQN-2994" value="40" style="rounded=0;whiteSpace=wrap;html=1;" parent="I9x_zmLDzlB-0vNgoR04-1" vertex="1">
          <mxGeometry x="430" width="400" height="400" as="geometry" />
        </mxCell>
      </root>
    </mxGraphModel>
  </diagram>
</mxfile>
